<?xml version="1.0" encoding="utf-8"?><svg xmlns="http://www.w3.org/2000/svg" xmlns:xlink="http://www.w3.org/1999/xlink" width="1680" height="852" preserveAspectRatio="xMidYMid" viewBox="0 0 1680 852" style="z-index:1;margin-right:-2px;display:block;background-repeat-y:initial;background-repeat-x:initial;background-color:rgb(241, 242, 243);animation-play-state:paused" ><g transform="translate(840,426) scale(1,1) translate(-840,-426)" style="transform:matrix(1, 0, 0, 1, 0, 0);animation-play-state:paused" ><linearGradient id="lg-0.10535890616315458" x1="0" x2="1" y1="0" y2="0" style="animation-play-state:paused" ><stop stop-color="#005566" offset="0" style="animation-play-state:paused" ></stop>

  
<stop stop-color="#00ffff" offset="1" style="animation-play-state:paused" ></stop></linearGradient>
<path d="M 0 0 L 0 851.252 Q 168 652.411 336 615.535 T 672 534.431 T 1008 515.365 T 1344 471.202 T 1680 378.1 L 1680 0 Z" fill="url(#lg-0.10535890616315458)" opacity="0.4" style="opacity:0.4;animation-play-state:paused" ></path>
<path d="M 0 0 L 0 836.532 Q 168 745.241 336 726.448 T 672 645.37 T 1008 522.747 T 1344 396.648 T 1680 349.593 L 1680 0 Z" fill="url(#lg-0.10535890616315458)" opacity="0.4" style="opacity:0.4;animation-play-state:paused" ></path>
<path d="M 0 0 L 0 816.024 Q 168 677.819 336 637.924 T 672 633.083 T 1008 561.948 T 1344 426.236 T 1680 314.763 L 1680 0 Z" fill="url(#lg-0.10535890616315458)" opacity="0.4" style="opacity:0.4;animation-play-state:paused" ></path>
<path d="M 0 0 L 0 703.645 Q 168 703.481 336 683.132 T 672 597.053 T 1008 561.631 T 1344 437.115 T 1680 356.963 L 1680 0 Z" fill="url(#lg-0.10535890616315458)" opacity="0.4" style="opacity:0.4;animation-play-state:paused" ></path>
<path d="M 0 0 L 0 819.101 Q 168 757.793 336 724.584 T 672 648.543 T 1008 544.236 T 1344 432.212 T 1680 342.266 L 1680 0 Z" fill="url(#lg-0.10535890616315458)" opacity="0.4" style="opacity:0.4;animation-play-state:paused" ></path></g></svg>